<svg width="161" height="32" viewBox="0 0 161 32" fill="none" xmlns="http://www.w3.org/2000/svg">
<path d="M14.262 5.8541C14.8607 4.01148 17.4675 4.01148 18.0662 5.8541L19.3073 9.67376C19.575 10.4978 20.3429 11.0557 21.2094 11.0557H25.2256C27.163 11.0557 27.9686 13.535 26.4012 14.6738L23.152 17.0344C22.451 17.5437 22.1577 18.4465 22.4254 19.2705L23.6665 23.0902C24.2652 24.9328 22.1563 26.465 20.5888 25.3262L17.3396 22.9656C16.6387 22.4563 15.6895 22.4563 14.9885 22.9656L11.7393 25.3262C10.1719 26.465 8.06291 24.9328 8.66161 23.0902L9.90269 19.2705C10.1704 18.4465 9.87713 17.5437 9.17615 17.0344L5.92695 14.6738C4.35952 13.535 5.16508 11.0557 7.10253 11.0557H11.1188C11.9852 11.0557 12.7531 10.4978 13.0209 9.67376L14.262 5.8541Z" fill="#F7B100"/>
<path d="M46.262 5.8541C46.8607 4.01148 49.4675 4.01148 50.0662 5.8541L51.3073 9.67376C51.575 10.4978 52.3429 11.0557 53.2094 11.0557H57.2256C59.163 11.0557 59.9686 13.535 58.4012 14.6738L55.152 17.0344C54.451 17.5437 54.1577 18.4465 54.4254 19.2705L55.6665 23.0902C56.2652 24.9328 54.1563 26.465 52.5888 25.3262L49.3396 22.9656C48.6387 22.4563 47.6895 22.4563 46.9885 22.9656L43.7393 25.3262C42.1719 26.465 40.0629 24.9328 40.6616 23.0902L41.9027 19.2705C42.1704 18.4465 41.8771 17.5437 41.1762 17.0344L37.927 14.6738C36.3595 13.535 37.1651 11.0557 39.1025 11.0557H43.1188C43.9852 11.0557 44.7531 10.4978 45.0209 9.67376L46.262 5.8541Z" fill="#F7B100"/>
<path d="M78.262 5.8541C78.8607 4.01148 81.4675 4.01148 82.0662 5.8541L83.3073 9.67376C83.575 10.4978 84.3429 11.0557 85.2094 11.0557H89.2256C91.163 11.0557 91.9686 13.535 90.4012 14.6738L87.152 17.0344C86.451 17.5437 86.1577 18.4465 86.4254 19.2705L87.6665 23.0902C88.2652 24.9328 86.1563 26.465 84.5888 25.3262L81.3396 22.9656C80.6387 22.4563 79.6895 22.4563 78.9885 22.9656L75.7393 25.3262C74.1719 26.465 72.0629 24.9328 72.6616 23.0902L73.9027 19.2705C74.1704 18.4465 73.8771 17.5437 73.1762 17.0344L69.927 14.6738C68.3595 13.535 69.1651 11.0557 71.1025 11.0557H75.1188C75.9852 11.0557 76.7531 10.4978 77.0209 9.67376L78.262 5.8541Z" fill="#F7B100"/>
<path d="M110.262 5.8541C110.861 4.01148 113.467 4.01148 114.066 5.8541L115.307 9.67376C115.575 10.4978 116.343 11.0557 117.209 11.0557H121.226C123.163 11.0557 123.969 13.535 122.401 14.6738L119.152 17.0344C118.451 17.5437 118.158 18.4465 118.425 19.2705L119.667 23.0902C120.265 24.9328 118.156 26.465 116.589 25.3262L113.34 22.9656C112.639 22.4563 111.689 22.4563 110.988 22.9656L107.739 25.3262C106.172 26.465 104.063 24.9328 104.662 23.0902L105.903 19.2705C106.17 18.4465 105.877 17.5437 105.176 17.0344L101.927 14.6738C100.36 13.535 101.165 11.0557 103.103 11.0557H107.119C107.985 11.0557 108.753 10.4978 109.021 9.67376L110.262 5.8541Z" fill="#F7B100"/>
<path d="M142.262 5.8541C142.861 4.01148 145.467 4.01148 146.066 5.8541L147.307 9.67376C147.575 10.4978 148.343 11.0557 149.209 11.0557H153.226C155.163 11.0557 155.969 13.535 154.401 14.6738L151.152 17.0344C150.451 17.5437 150.158 18.4465 150.425 19.2705L151.667 23.0902C152.265 24.9328 150.156 26.465 148.589 25.3262L145.34 22.9656C144.639 22.4563 143.689 22.4563 142.988 22.9656L139.739 25.3262C138.172 26.465 136.063 24.9328 136.662 23.0902L137.903 19.2705C138.17 18.4465 137.877 17.5437 137.176 17.0344L133.927 14.6738C132.36 13.535 133.165 11.0557 135.103 11.0557H139.119C139.985 11.0557 140.753 10.4978 141.021 9.67376L142.262 5.8541Z" fill="#D3D7EC"/>
<g clip-path="url(#clip0_2998_2014)">
<path d="M142.262 5.8541C142.861 4.01148 145.467 4.01148 146.066 5.8541L147.307 9.67376C147.575 10.4978 148.343 11.0557 149.209 11.0557H153.226C155.163 11.0557 155.969 13.535 154.401 14.6738L151.152 17.0344C150.451 17.5437 150.158 18.4465 150.425 19.2705L151.667 23.0902C152.265 24.9328 150.156 26.465 148.589 25.3262L145.34 22.9656C144.639 22.4563 143.689 22.4563 142.988 22.9656L139.739 25.3262C138.172 26.465 136.063 24.9328 136.662 23.0902L137.903 19.2705C138.17 18.4465 137.877 17.5437 137.176 17.0344L133.927 14.6738C132.36 13.535 133.165 11.0557 135.103 11.0557H139.119C139.985 11.0557 140.753 10.4978 141.021 9.67376L142.262 5.8541Z" fill="#F7B100"/>
</g>
<defs>
<clipPath id="clip0_2998_2014">
<rect width="20" height="32" fill="white" transform="translate(128.164)"/>
</clipPath>
</defs>
</svg>
